<mxfile host="Electron" agent="Mozilla/5.0 (Macintosh; Intel Mac OS X 10_15_7) AppleWebKit/537.36 (KHTML, like Gecko) draw.io/24.7.17 Chrome/128.0.6613.36 Electron/32.0.1 Safari/537.36" version="24.7.17">
  <diagram name="Page-1" id="v8zp7-42eXmuoUZyMCKh">
    <mxGraphModel dx="3703" dy="1391" grid="1" gridSize="10" guides="1" tooltips="1" connect="1" arrows="1" fold="1" page="1" pageScale="1" pageWidth="1654" pageHeight="1169" math="0" shadow="0">
      <root>
        <mxCell id="0" />
        <mxCell id="1" parent="0" />
        <mxCell id="gqRq-dp9FHOY6KJ_eilu-30" value="GitHub" style="rounded=0;whiteSpace=wrap;html=1;align=left;horizontal=1;verticalAlign=top;" vertex="1" parent="1">
          <mxGeometry x="-410" y="270" width="530" height="710" as="geometry" />
        </mxCell>
        <mxCell id="gqRq-dp9FHOY6KJ_eilu-11" value="Jetson" style="rounded=0;whiteSpace=wrap;html=1;align=left;verticalAlign=top;" vertex="1" parent="1">
          <mxGeometry x="162" y="120" width="1330" height="670" as="geometry" />
        </mxCell>
        <mxCell id="gqRq-dp9FHOY6KJ_eilu-2" value="Docker&lt;div&gt;&lt;br&gt;&lt;/div&gt;" style="rounded=0;whiteSpace=wrap;html=1;align=left;verticalAlign=top;" vertex="1" parent="1">
          <mxGeometry x="690" y="240" width="740" height="500" as="geometry" />
        </mxCell>
        <mxCell id="gqRq-dp9FHOY6KJ_eilu-22" style="edgeStyle=orthogonalEdgeStyle;rounded=0;orthogonalLoop=1;jettySize=auto;html=1;exitX=1;exitY=0.5;exitDx=0;exitDy=0;entryX=0;entryY=0.5;entryDx=0;entryDy=0;" edge="1" parent="1" source="gqRq-dp9FHOY6KJ_eilu-1" target="gqRq-dp9FHOY6KJ_eilu-12">
          <mxGeometry relative="1" as="geometry" />
        </mxCell>
        <mxCell id="gqRq-dp9FHOY6KJ_eilu-23" style="edgeStyle=orthogonalEdgeStyle;rounded=0;orthogonalLoop=1;jettySize=auto;html=1;exitX=1;exitY=0.5;exitDx=0;exitDy=0;entryX=0;entryY=0.5;entryDx=0;entryDy=0;" edge="1" parent="1" source="gqRq-dp9FHOY6KJ_eilu-1" target="gqRq-dp9FHOY6KJ_eilu-13">
          <mxGeometry relative="1" as="geometry" />
        </mxCell>
        <mxCell id="gqRq-dp9FHOY6KJ_eilu-24" style="edgeStyle=orthogonalEdgeStyle;rounded=0;orthogonalLoop=1;jettySize=auto;html=1;exitX=1;exitY=0.5;exitDx=0;exitDy=0;entryX=0;entryY=0.5;entryDx=0;entryDy=0;" edge="1" parent="1" source="gqRq-dp9FHOY6KJ_eilu-1" target="gqRq-dp9FHOY6KJ_eilu-15">
          <mxGeometry relative="1" as="geometry" />
        </mxCell>
        <mxCell id="gqRq-dp9FHOY6KJ_eilu-26" style="edgeStyle=orthogonalEdgeStyle;rounded=0;orthogonalLoop=1;jettySize=auto;html=1;exitX=0.5;exitY=0;exitDx=0;exitDy=0;entryX=0;entryY=0.5;entryDx=0;entryDy=0;" edge="1" parent="1" source="gqRq-dp9FHOY6KJ_eilu-1" target="gqRq-dp9FHOY6KJ_eilu-25">
          <mxGeometry relative="1" as="geometry" />
        </mxCell>
        <mxCell id="gqRq-dp9FHOY6KJ_eilu-28" style="edgeStyle=orthogonalEdgeStyle;rounded=0;orthogonalLoop=1;jettySize=auto;html=1;exitX=1;exitY=0.5;exitDx=0;exitDy=0;entryX=0.5;entryY=1;entryDx=0;entryDy=0;" edge="1" parent="1" source="gqRq-dp9FHOY6KJ_eilu-1" target="gqRq-dp9FHOY6KJ_eilu-10">
          <mxGeometry relative="1" as="geometry">
            <Array as="points">
              <mxPoint x="620" y="445" />
              <mxPoint x="620" y="700" />
              <mxPoint x="1300" y="700" />
            </Array>
          </mxGeometry>
        </mxCell>
        <mxCell id="gqRq-dp9FHOY6KJ_eilu-41" style="edgeStyle=orthogonalEdgeStyle;rounded=0;orthogonalLoop=1;jettySize=auto;html=1;exitX=0;exitY=0.5;exitDx=0;exitDy=0;" edge="1" parent="1" source="gqRq-dp9FHOY6KJ_eilu-1" target="gqRq-dp9FHOY6KJ_eilu-37">
          <mxGeometry relative="1" as="geometry">
            <Array as="points">
              <mxPoint x="-50" y="445" />
            </Array>
          </mxGeometry>
        </mxCell>
        <mxCell id="gqRq-dp9FHOY6KJ_eilu-1" value="GitOps" style="rounded=0;whiteSpace=wrap;html=1;" vertex="1" parent="1">
          <mxGeometry x="200" y="380" width="200" height="130" as="geometry" />
        </mxCell>
        <mxCell id="gqRq-dp9FHOY6KJ_eilu-9" value="" style="edgeStyle=orthogonalEdgeStyle;rounded=0;orthogonalLoop=1;jettySize=auto;html=1;" edge="1" parent="1" source="gqRq-dp9FHOY6KJ_eilu-8" target="gqRq-dp9FHOY6KJ_eilu-1">
          <mxGeometry relative="1" as="geometry" />
        </mxCell>
        <mxCell id="gqRq-dp9FHOY6KJ_eilu-36" style="edgeStyle=orthogonalEdgeStyle;rounded=0;orthogonalLoop=1;jettySize=auto;html=1;exitX=1;exitY=0.5;exitDx=0;exitDy=0;" edge="1" parent="1" source="gqRq-dp9FHOY6KJ_eilu-8" target="gqRq-dp9FHOY6KJ_eilu-34">
          <mxGeometry relative="1" as="geometry" />
        </mxCell>
        <mxCell id="gqRq-dp9FHOY6KJ_eilu-8" value="Dashboard" style="rounded=0;whiteSpace=wrap;html=1;" vertex="1" parent="1">
          <mxGeometry x="240" y="600" width="120" height="60" as="geometry" />
        </mxCell>
        <mxCell id="gqRq-dp9FHOY6KJ_eilu-10" value="LlamaCppServer" style="rounded=0;whiteSpace=wrap;html=1;" vertex="1" parent="1">
          <mxGeometry x="1200" y="380" width="200" height="130" as="geometry" />
        </mxCell>
        <mxCell id="gqRq-dp9FHOY6KJ_eilu-17" style="edgeStyle=orthogonalEdgeStyle;rounded=0;orthogonalLoop=1;jettySize=auto;html=1;exitX=1;exitY=0.5;exitDx=0;exitDy=0;" edge="1" parent="1" source="gqRq-dp9FHOY6KJ_eilu-12" target="gqRq-dp9FHOY6KJ_eilu-10">
          <mxGeometry relative="1" as="geometry" />
        </mxCell>
        <mxCell id="gqRq-dp9FHOY6KJ_eilu-12" value="QA Frontend" style="rounded=0;whiteSpace=wrap;html=1;" vertex="1" parent="1">
          <mxGeometry x="840" y="310" width="200" height="70" as="geometry" />
        </mxCell>
        <mxCell id="gqRq-dp9FHOY6KJ_eilu-20" style="edgeStyle=orthogonalEdgeStyle;rounded=0;orthogonalLoop=1;jettySize=auto;html=1;exitX=1;exitY=0.5;exitDx=0;exitDy=0;entryX=0;entryY=0.5;entryDx=0;entryDy=0;" edge="1" parent="1" source="gqRq-dp9FHOY6KJ_eilu-13" target="gqRq-dp9FHOY6KJ_eilu-10">
          <mxGeometry relative="1" as="geometry" />
        </mxCell>
        <mxCell id="gqRq-dp9FHOY6KJ_eilu-13" value="Gen Backend" style="rounded=0;whiteSpace=wrap;html=1;" vertex="1" parent="1">
          <mxGeometry x="840" y="410" width="200" height="70" as="geometry" />
        </mxCell>
        <mxCell id="gqRq-dp9FHOY6KJ_eilu-21" style="edgeStyle=orthogonalEdgeStyle;rounded=0;orthogonalLoop=1;jettySize=auto;html=1;exitX=1;exitY=0.5;exitDx=0;exitDy=0;entryX=0;entryY=0.5;entryDx=0;entryDy=0;" edge="1" parent="1" source="gqRq-dp9FHOY6KJ_eilu-15" target="gqRq-dp9FHOY6KJ_eilu-10">
          <mxGeometry relative="1" as="geometry">
            <mxPoint x="1170" y="400" as="targetPoint" />
            <Array as="points">
              <mxPoint x="1120" y="545" />
              <mxPoint x="1120" y="445" />
            </Array>
          </mxGeometry>
        </mxCell>
        <mxCell id="gqRq-dp9FHOY6KJ_eilu-35" value="" style="edgeStyle=orthogonalEdgeStyle;rounded=0;orthogonalLoop=1;jettySize=auto;html=1;" edge="1" parent="1" source="gqRq-dp9FHOY6KJ_eilu-15" target="gqRq-dp9FHOY6KJ_eilu-34">
          <mxGeometry relative="1" as="geometry" />
        </mxCell>
        <mxCell id="gqRq-dp9FHOY6KJ_eilu-15" value="Voice Assistant" style="rounded=0;whiteSpace=wrap;html=1;" vertex="1" parent="1">
          <mxGeometry x="840" y="510" width="200" height="70" as="geometry" />
        </mxCell>
        <mxCell id="gqRq-dp9FHOY6KJ_eilu-27" style="edgeStyle=orthogonalEdgeStyle;rounded=0;orthogonalLoop=1;jettySize=auto;html=1;exitX=1;exitY=0.5;exitDx=0;exitDy=0;entryX=0.5;entryY=0;entryDx=0;entryDy=0;" edge="1" parent="1" source="gqRq-dp9FHOY6KJ_eilu-25" target="gqRq-dp9FHOY6KJ_eilu-2">
          <mxGeometry relative="1" as="geometry" />
        </mxCell>
        <mxCell id="gqRq-dp9FHOY6KJ_eilu-25" value="Docker Compose" style="rounded=0;whiteSpace=wrap;html=1;" vertex="1" parent="1">
          <mxGeometry x="380" y="190" width="200" height="50" as="geometry" />
        </mxCell>
        <mxCell id="gqRq-dp9FHOY6KJ_eilu-31" value="Repo" style="rounded=0;whiteSpace=wrap;html=1;" vertex="1" parent="1">
          <mxGeometry x="-310" y="470" width="120" height="60" as="geometry" />
        </mxCell>
        <mxCell id="gqRq-dp9FHOY6KJ_eilu-34" value="Dashboard" style="rounded=0;whiteSpace=wrap;html=1;" vertex="1" parent="1">
          <mxGeometry x="880" y="600" width="120" height="60" as="geometry" />
        </mxCell>
        <mxCell id="gqRq-dp9FHOY6KJ_eilu-42" style="edgeStyle=orthogonalEdgeStyle;rounded=0;orthogonalLoop=1;jettySize=auto;html=1;exitX=0.25;exitY=0;exitDx=0;exitDy=0;entryX=0.5;entryY=1;entryDx=0;entryDy=0;" edge="1" parent="1" source="gqRq-dp9FHOY6KJ_eilu-37" target="gqRq-dp9FHOY6KJ_eilu-31">
          <mxGeometry relative="1" as="geometry" />
        </mxCell>
        <mxCell id="gqRq-dp9FHOY6KJ_eilu-37" value="Recipe" style="swimlane;fontStyle=0;childLayout=stackLayout;horizontal=1;startSize=20;horizontalStack=0;resizeParent=1;resizeParentMax=0;resizeLast=0;collapsible=1;marginBottom=0;whiteSpace=wrap;html=1;" vertex="1" parent="1">
          <mxGeometry x="-320" y="640" width="280" height="110" as="geometry" />
        </mxCell>
        <mxCell id="gqRq-dp9FHOY6KJ_eilu-38" value="compose: folderA/compose" style="text;strokeColor=none;fillColor=none;align=left;verticalAlign=middle;spacingLeft=4;spacingRight=4;overflow=hidden;points=[[0,0.5],[1,0.5]];portConstraint=eastwest;rotatable=0;whiteSpace=wrap;html=1;" vertex="1" parent="gqRq-dp9FHOY6KJ_eilu-37">
          <mxGeometry y="20" width="280" height="30" as="geometry" />
        </mxCell>
        <mxCell id="gqRq-dp9FHOY6KJ_eilu-39" value="Item 2" style="text;strokeColor=none;fillColor=none;align=left;verticalAlign=middle;spacingLeft=4;spacingRight=4;overflow=hidden;points=[[0,0.5],[1,0.5]];portConstraint=eastwest;rotatable=0;whiteSpace=wrap;html=1;" vertex="1" parent="gqRq-dp9FHOY6KJ_eilu-37">
          <mxGeometry y="50" width="280" height="30" as="geometry" />
        </mxCell>
        <mxCell id="gqRq-dp9FHOY6KJ_eilu-40" value="Item 3" style="text;strokeColor=none;fillColor=none;align=left;verticalAlign=middle;spacingLeft=4;spacingRight=4;overflow=hidden;points=[[0,0.5],[1,0.5]];portConstraint=eastwest;rotatable=0;whiteSpace=wrap;html=1;" vertex="1" parent="gqRq-dp9FHOY6KJ_eilu-37">
          <mxGeometry y="80" width="280" height="30" as="geometry" />
        </mxCell>
      </root>
    </mxGraphModel>
  </diagram>
</mxfile>
